<svg width="30" height="30" viewBox="0 0 30 30" fill="none" xmlns="http://www.w3.org/2000/svg" xmlns:xlink="http://www.w3.org/1999/xlink">
<use xlink:href="#stroke0_144_1219" fill="#FFFCF7"/>
<mask id="stroke1_144_1219" fill="white">
<use xlink:href="#stroke0_144_1219"/>
</mask>
<path d="M27.116 2.88399C26.8575 2.60998 26.5467 2.39058 26.2019 2.23874C25.8572 2.08691 25.4855 2.00573 25.1088 2H4.89146C4.5148 2.00573 4.14311 2.08691 3.79836 2.23874C3.45361 2.39058 3.14279 2.60998 2.88429 2.88399C2.61028 3.1425 2.39087 3.45331 2.23904 3.79806C2.08721 4.14281 2.00603 4.51451 2.0003 4.89117V25.1085C1.9946 25.487 2.07063 25.8622 2.22319 26.2086C2.37575 26.555 2.60124 26.8644 2.88429 27.1157C3.14279 27.3897 3.45361 27.6091 3.79836 27.761C4.14311 27.9128 4.5148 27.994 4.89146 27.9997H25.1088C25.865 27.9666 26.5813 27.6514 27.1165 27.1162C27.6517 26.581 27.9669 25.8647 28 25.1085V4.89117C27.9943 4.51451 27.9131 4.14281 27.7613 3.79806C27.6094 3.45331 27.39 3.1425 27.116 2.88399Z" stroke-width="2" stroke="#CADCF0" mask="url(#stroke1_144_1219)"/>
<path d="M12.7401 20.2051C12.9333 20.2236 13.1278 20.1875 13.3017 20.1011C13.5201 19.9867 13.6345 19.9867 13.7489 19.7579L21.9648 11.542C22.1054 11.4077 22.2176 11.2463 22.2944 11.0676C22.3712 10.8889 22.4112 10.6966 22.412 10.502C22.4282 10.3053 22.3959 10.1077 22.3179 9.92633C22.2399 9.74503 22.1187 9.58562 21.9648 9.46208C21.8332 9.31788 21.6723 9.2034 21.493 9.12629C21.3137 9.04918 21.1199 9.0112 20.9248 9.01489C20.7267 8.98101 20.5232 9.00522 20.3386 9.08458C20.154 9.16394 19.9964 9.29506 19.8848 9.46208L12.7713 16.5652L9.65132 13.4452C9.51772 13.3036 9.35652 13.1908 9.17765 13.1139C8.99877 13.037 8.80604 12.9975 8.61133 12.998C8.41462 12.9818 8.21694 13.0141 8.03562 13.092C7.8543 13.17 7.69488 13.2913 7.57134 13.4452C7.39183 13.5947 7.24817 13.7825 7.15097 13.9949C7.05377 14.2073 7.00551 14.4388 7.00975 14.6724C6.98329 14.87 7.01091 15.071 7.08965 15.2542C7.1684 15.4373 7.29534 15.5957 7.45694 15.7124L11.6169 19.8203C11.7313 19.9347 11.9497 20.0491 12.0641 20.1531L12.7401 20.2051Z" fill="#CADCF0"/>
<defs>
<path id="stroke0_144_1219" d="M27.116 2.88399C26.8575 2.60998 26.5467 2.39058 26.2019 2.23874C25.8572 2.08691 25.4855 2.00573 25.1088 2H4.89146C4.5148 2.00573 4.14311 2.08691 3.79836 2.23874C3.45361 2.39058 3.14279 2.60998 2.88429 2.88399C2.61028 3.1425 2.39087 3.45331 2.23904 3.79806C2.08721 4.14281 2.00603 4.51451 2.0003 4.89117V25.1085C1.9946 25.487 2.07063 25.8622 2.22319 26.2086C2.37575 26.555 2.60124 26.8644 2.88429 27.1157C3.14279 27.3897 3.45361 27.6091 3.79836 27.761C4.14311 27.9128 4.5148 27.994 4.89146 27.9997H25.1088C25.865 27.9666 26.5813 27.6514 27.1165 27.1162C27.6517 26.581 27.9669 25.8647 28 25.1085V4.89117C27.9943 4.51451 27.9131 4.14281 27.7613 3.79806C27.6094 3.45331 27.39 3.1425 27.116 2.88399Z"/>
</defs>
</svg>
