<svg width="350" height="50" viewBox="0 0 350 50" fill="none" xmlns="http://www.w3.org/2000/svg">
<g clip-path="url(#clip0_146_2089)">
<rect x="0.5" y="0.5" width="349" height="49" rx="5.5" fill="#F4F9FF"/>
<rect x="0.5" y="0.5" width="349" height="49" rx="5.5" stroke="#003686"/>
<path d="M25.368 31.312V18.304H26.824V23.28H29.112V17.952H30.568V31.92H29.112V24.704H26.824V31.312H25.368ZM18.408 29.12V19.104H19.928V27.696H20.328C21.9067 27.696 23.256 27.5093 24.376 27.136L24.696 28.512C23.672 28.9173 22.2107 29.12 20.312 29.12H18.408ZM33.0828 25.904V24.56H36.4268V22.752C35.3921 22.2933 34.8748 21.5893 34.8748 20.64C34.8748 19.7867 35.3067 19.1253 36.1707 18.656C37.0347 18.176 38.2561 17.936 39.8348 17.936C41.4134 17.936 42.6348 18.176 43.4988 18.656C44.3734 19.1253 44.8108 19.7867 44.8108 20.64C44.8108 21.5893 44.2881 22.2933 43.2428 22.752V24.56H46.6028V25.904H33.0828ZM36.3468 20.64C36.3468 21.1093 36.6614 21.456 37.2908 21.68C37.9307 21.904 38.7734 22.016 39.8188 22.016C42.1654 22.016 43.3388 21.5573 43.3388 20.64C43.3388 19.712 42.1654 19.248 39.8188 19.248C38.7734 19.248 37.9307 19.36 37.2908 19.584C36.6614 19.808 36.3468 20.16 36.3468 20.64ZM37.8988 23.184L37.9147 24.56H41.7547V23.184C41.2321 23.2693 40.5921 23.312 39.8348 23.312C39.0881 23.312 38.4428 23.2693 37.8988 23.184ZM36.1388 31.488C35.2854 31.04 34.8587 30.3947 34.8587 29.552C34.8587 28.7093 35.2854 28.064 36.1388 27.616C36.9921 27.168 38.2188 26.944 39.8188 26.944C41.4188 26.944 42.6507 27.168 43.5148 27.616C44.3787 28.064 44.8108 28.7093 44.8108 29.552C44.8108 30.3947 44.3787 31.04 43.5148 31.488C42.6507 31.9467 41.4188 32.176 39.8188 32.176C38.2188 32.176 36.9921 31.9467 36.1388 31.488ZM37.2747 28.592C36.6561 28.8267 36.3468 29.1467 36.3468 29.552C36.3468 29.9573 36.6561 30.2773 37.2747 30.512C37.8934 30.7467 38.7414 30.864 39.8188 30.864C40.9067 30.864 41.7601 30.7467 42.3787 30.512C43.0081 30.2773 43.3228 29.9573 43.3228 29.552C43.3228 29.1467 43.0081 28.8267 42.3787 28.592C41.7601 28.3573 40.9067 28.24 39.8188 28.24C38.7414 28.24 37.8934 28.3573 37.2747 28.592ZM51.3895 22.304C50.5255 21.8667 50.0935 21.248 50.0935 20.448C50.0935 19.648 50.5255 19.024 51.3895 18.576C52.2642 18.128 53.4855 17.904 55.0535 17.904C56.6215 17.904 57.8428 18.128 58.7175 18.576C59.5922 19.024 60.0295 19.648 60.0295 20.448C60.0295 21.2587 59.5975 21.8827 58.7335 22.32C57.8802 22.7467 56.6535 22.96 55.0535 22.96C53.4855 22.96 52.2642 22.7413 51.3895 22.304ZM52.4775 19.456C51.8695 19.6907 51.5655 20.0213 51.5655 20.448C51.5655 20.8747 51.8695 21.2053 52.4775 21.44C53.0962 21.6747 53.9495 21.792 55.0375 21.792C56.1468 21.792 57.0108 21.6747 57.6295 21.44C58.2482 21.1947 58.5575 20.864 58.5575 20.448C58.5575 20.0213 58.2482 19.6907 57.6295 19.456C57.0108 19.2107 56.1468 19.088 55.0375 19.088C53.9495 19.088 53.0962 19.2107 52.4775 19.456ZM48.3015 24.976V23.776H61.8215V24.976H48.3015ZM49.9175 27.344V26.176H60.2375V29.568H51.4375V30.704H56.2055C58.1362 30.704 59.6722 30.5387 60.8135 30.208L61.1015 31.344C59.9922 31.7067 58.3442 31.888 56.1575 31.888H49.9495V28.432H58.7335V27.344H49.9175ZM80.1339 25.296V17.952H81.6379V25.296H80.1339ZM71.1259 24.144C70.4005 23.472 70.0379 22.656 70.0379 21.696C70.0379 20.736 70.4005 19.92 71.1259 19.248C71.8512 18.576 72.8059 18.24 73.9899 18.24C75.1739 18.24 76.1285 18.576 76.8539 19.248C77.5792 19.92 77.9419 20.736 77.9419 21.696C77.9419 22.656 77.5792 23.472 76.8539 24.144C76.1285 24.8053 75.1739 25.136 73.9899 25.136C72.8059 25.136 71.8512 24.8053 71.1259 24.144ZM72.1659 20.144C71.6965 20.56 71.4619 21.0773 71.4619 21.696C71.4619 22.3147 71.6965 22.832 72.1659 23.248C72.6459 23.6533 73.2539 23.856 73.9899 23.856C74.7152 23.856 75.3179 23.6533 75.7979 23.248C76.2885 22.832 76.5339 22.3147 76.5339 21.696C76.5339 21.0773 76.2885 20.56 75.7979 20.144C75.3179 19.728 74.7152 19.52 73.9899 19.52C73.2539 19.52 72.6459 19.728 72.1659 20.144ZM71.7179 31.872V26H73.2219V27.44H80.1339V26H81.6379V31.872H71.7179ZM73.2219 30.512H80.1339V28.8H73.2219V30.512ZM93.0006 23.856V22.512H95.4486V20.896H93.0006V19.536H95.4486V17.952H96.9366V26.688H95.4486V23.856H93.0006ZM85.3206 19.808V18.464H91.9286V22.848H86.8406V24.64H88.3606C90.3233 24.64 91.774 24.448 92.7126 24.064L93.0806 25.344C92.1206 25.7707 90.542 25.984 88.3446 25.984H85.3526V21.536H90.3926V19.808H85.3206ZM86.8566 28.752V27.392H96.9366V31.92H95.4486V28.752H86.8566ZM107.659 31.312V18.304H109.083V23.344H110.971V17.952H112.427V31.92H110.971V24.768H109.083V31.312H107.659ZM101.019 19.424L101.451 18.144C102.166 18.496 103.195 18.672 104.539 18.672H105.019V20.016H104.555C102.955 20.016 101.777 19.8187 101.019 19.424ZM99.4674 22.464V21.088H106.763V22.464H99.4674ZM100.955 28.576C100.411 28.0107 100.139 27.2747 100.139 26.368C100.139 25.4613 100.417 24.7253 100.971 24.16C101.526 23.5947 102.251 23.312 103.147 23.312C104.054 23.312 104.785 23.5947 105.339 24.16C105.894 24.7253 106.171 25.4613 106.171 26.368C106.171 27.2747 105.894 28.0107 105.339 28.576C104.785 29.1307 104.054 29.408 103.147 29.408C102.241 29.408 101.51 29.1307 100.955 28.576ZM101.915 25.024C101.606 25.3653 101.451 25.8133 101.451 26.368C101.451 26.9227 101.606 27.3707 101.915 27.712C102.235 28.0533 102.646 28.224 103.147 28.224C103.649 28.224 104.054 28.0533 104.363 27.712C104.683 27.3707 104.843 26.9227 104.843 26.368C104.843 25.8133 104.683 25.3653 104.363 25.024C104.054 24.672 103.649 24.496 103.147 24.496C102.646 24.496 102.235 24.672 101.915 25.024ZM115.646 24.992L121.086 19.808H116.334V18.4H127.054V19.808H122.27L127.726 24.992H125.678L121.71 21.216L117.758 24.992H115.646ZM114.942 27.776V26.352H128.462V27.776H122.446V32.048H120.926V27.776H114.942ZM141.345 31.92V17.952H142.801V31.92H141.345ZM136.161 24.16V22.736H138.305V18.304H139.745V31.312H138.305V24.16H136.161ZM129.841 29.376L133.377 18.608L133.505 18.624L137.057 29.376H135.537L133.473 22.64L131.409 29.376H129.841ZM147.732 24.704C147.23 24.0747 146.98 23.328 146.98 22.464C146.98 21.6 147.23 20.8587 147.732 20.24C148.244 19.6107 148.878 19.1573 149.636 18.88C150.393 18.592 151.225 18.448 152.132 18.448C153.038 18.448 153.87 18.592 154.628 18.88C155.396 19.1573 156.036 19.6107 156.548 20.24C157.06 20.8587 157.316 21.6 157.316 22.464C157.316 23.328 157.06 24.0747 156.548 24.704C156.036 25.3227 155.396 25.776 154.628 26.064C153.87 26.3413 153.038 26.48 152.132 26.48C151.225 26.48 150.393 26.3413 149.636 26.064C148.878 25.776 148.244 25.3227 147.732 24.704ZM148.996 20.96C148.633 21.3653 148.452 21.8667 148.452 22.464C148.452 23.0613 148.633 23.568 148.996 23.984C149.358 24.3893 149.806 24.6773 150.34 24.848C150.873 25.0187 151.465 25.104 152.116 25.104C152.766 25.104 153.364 25.0187 153.908 24.848C154.452 24.6773 154.905 24.3893 155.268 23.984C155.641 23.568 155.828 23.0613 155.828 22.464C155.828 21.8667 155.641 21.3653 155.268 20.96C154.905 20.544 154.452 20.2507 153.908 20.08C153.364 19.9093 152.766 19.824 152.116 19.824C151.465 19.824 150.873 19.9093 150.34 20.08C149.806 20.2507 149.358 20.544 148.996 20.96ZM145.38 30.384V28.96H148.676V26.816L150.148 26.864V28.96H154.116V26.864L155.588 26.816V28.96H158.9V30.384H145.38ZM162.006 28.016H163.958V30H162.006V28.016Z" fill="#7A9BBF"/>
</g>
<defs>
<clipPath id="clip0_146_2089">
<rect width="350" height="50" fill="white"/>
</clipPath>
</defs>
</svg>
