<svg width="350" height="50" viewBox="0 0 350 50" fill="none" xmlns="http://www.w3.org/2000/svg">
<g clip-path="url(#clip0_146_2135)">
<rect x="0.5" y="0.5" width="349" height="49" rx="5.5" fill="#F4F9FF"/>
<rect x="0.5" y="0.5" width="349" height="49" rx="5.5" stroke="#003686"/>
<path d="M18.232 24.16C18.232 23.68 18.3067 23.296 18.456 23.008C18.616 22.7093 18.8293 22.496 19.096 22.368C19.3733 22.24 19.6773 22.176 20.008 22.176C20.3387 22.176 20.6373 22.24 20.904 22.368C21.1707 22.496 21.384 22.7093 21.544 23.008C21.704 23.296 21.784 23.68 21.784 24.16C21.784 24.6293 21.704 25.0133 21.544 25.312C21.384 25.6 21.1707 25.8133 20.904 25.952C20.6373 26.08 20.3387 26.144 20.008 26.144C19.6773 26.144 19.3733 26.08 19.096 25.952C18.8293 25.8133 18.616 25.6 18.456 25.312C18.3067 25.0133 18.232 24.6293 18.232 24.16ZM24.2476 24.16C24.2476 23.68 24.3223 23.296 24.4716 23.008C24.6316 22.7093 24.845 22.496 25.1116 22.368C25.389 22.24 25.693 22.176 26.0236 22.176C26.3543 22.176 26.653 22.24 26.9196 22.368C27.1863 22.496 27.3996 22.7093 27.5596 23.008C27.7196 23.296 27.7996 23.68 27.7996 24.16C27.7996 24.6293 27.7196 25.0133 27.5596 25.312C27.3996 25.6 27.1863 25.8133 26.9196 25.952C26.653 26.08 26.3543 26.144 26.0236 26.144C25.693 26.144 25.389 26.08 25.1116 25.952C24.845 25.8133 24.6316 25.6 24.4716 25.312C24.3223 25.0133 24.2476 24.6293 24.2476 24.16ZM30.2633 24.16C30.2633 23.68 30.3379 23.296 30.4873 23.008C30.6473 22.7093 30.8606 22.496 31.1273 22.368C31.4046 22.24 31.7086 22.176 32.0393 22.176C32.3699 22.176 32.6686 22.24 32.9353 22.368C33.2019 22.496 33.4153 22.7093 33.5753 23.008C33.7353 23.296 33.8153 23.68 33.8153 24.16C33.8153 24.6293 33.7353 25.0133 33.5753 25.312C33.4153 25.6 33.2019 25.8133 32.9353 25.952C32.6686 26.08 32.3699 26.144 32.0393 26.144C31.7086 26.144 31.4046 26.08 31.1273 25.952C30.8606 25.8133 30.6473 25.6 30.4873 25.312C30.3379 25.0133 30.2633 24.6293 30.2633 24.16ZM36.2789 24.16C36.2789 23.68 36.3535 23.296 36.5029 23.008C36.6629 22.7093 36.8762 22.496 37.1429 22.368C37.4202 22.24 37.7242 22.176 38.0549 22.176C38.3855 22.176 38.6842 22.24 38.9509 22.368C39.2175 22.496 39.4309 22.7093 39.5909 23.008C39.7509 23.296 39.8309 23.68 39.8309 24.16C39.8309 24.6293 39.7509 25.0133 39.5909 25.312C39.4309 25.6 39.2175 25.8133 38.9509 25.952C38.6842 26.08 38.3855 26.144 38.0549 26.144C37.7242 26.144 37.4202 26.08 37.1429 25.952C36.8762 25.8133 36.6629 25.6 36.5029 25.312C36.3535 25.0133 36.2789 24.6293 36.2789 24.16ZM42.2945 24.16C42.2945 23.68 42.3692 23.296 42.5185 23.008C42.6785 22.7093 42.8918 22.496 43.1585 22.368C43.4358 22.24 43.7398 22.176 44.0705 22.176C44.4012 22.176 44.6998 22.24 44.9665 22.368C45.2332 22.496 45.4465 22.7093 45.6065 23.008C45.7665 23.296 45.8465 23.68 45.8465 24.16C45.8465 24.6293 45.7665 25.0133 45.6065 25.312C45.4465 25.6 45.2332 25.8133 44.9665 25.952C44.6998 26.08 44.4012 26.144 44.0705 26.144C43.7398 26.144 43.4358 26.08 43.1585 25.952C42.8918 25.8133 42.6785 25.6 42.5185 25.312C42.3692 25.0133 42.2945 24.6293 42.2945 24.16ZM48.3101 24.16C48.3101 23.68 48.3848 23.296 48.5341 23.008C48.6941 22.7093 48.9075 22.496 49.1741 22.368C49.4515 22.24 49.7555 22.176 50.0861 22.176C50.4168 22.176 50.7155 22.24 50.9821 22.368C51.2488 22.496 51.4621 22.7093 51.6221 23.008C51.7821 23.296 51.8621 23.68 51.8621 24.16C51.8621 24.6293 51.7821 25.0133 51.6221 25.312C51.4621 25.6 51.2488 25.8133 50.9821 25.952C50.7155 26.08 50.4168 26.144 50.0861 26.144C49.7555 26.144 49.4515 26.08 49.1741 25.952C48.9075 25.8133 48.6941 25.6 48.5341 25.312C48.3848 25.0133 48.3101 24.6293 48.3101 24.16ZM54.3257 24.16C54.3257 23.68 54.4004 23.296 54.5498 23.008C54.7098 22.7093 54.9231 22.496 55.1898 22.368C55.4671 22.24 55.7711 22.176 56.1017 22.176C56.4324 22.176 56.7311 22.24 56.9977 22.368C57.2644 22.496 57.4777 22.7093 57.6377 23.008C57.7977 23.296 57.8778 23.68 57.8778 24.16C57.8778 24.6293 57.7977 25.0133 57.6377 25.312C57.4777 25.6 57.2644 25.8133 56.9977 25.952C56.7311 26.08 56.4324 26.144 56.1017 26.144C55.7711 26.144 55.4671 26.08 55.1898 25.952C54.9231 25.8133 54.7098 25.6 54.5498 25.312C54.4004 25.0133 54.3257 24.6293 54.3257 24.16ZM60.3414 24.16C60.3414 23.68 60.416 23.296 60.5654 23.008C60.7254 22.7093 60.9387 22.496 61.2054 22.368C61.4827 22.24 61.7867 22.176 62.1174 22.176C62.448 22.176 62.7467 22.24 63.0134 22.368C63.28 22.496 63.4934 22.7093 63.6534 23.008C63.8134 23.296 63.8934 23.68 63.8934 24.16C63.8934 24.6293 63.8134 25.0133 63.6534 25.312C63.4934 25.6 63.28 25.8133 63.0134 25.952C62.7467 26.08 62.448 26.144 62.1174 26.144C61.7867 26.144 61.4827 26.08 61.2054 25.952C60.9387 25.8133 60.7254 25.6 60.5654 25.312C60.416 25.0133 60.3414 24.6293 60.3414 24.16Z" fill="#003686"/>
<g clip-path="url(#clip1_146_2135)">
<path d="M291 16.6667C286.392 16.6667 282.667 20.3917 282.667 25.0001C282.667 29.6084 286.392 33.3334 291 33.3334C295.608 33.3334 299.333 29.6084 299.333 25.0001C299.333 20.3917 295.608 16.6667 291 16.6667ZM294.583 28.5834C294.258 28.9084 293.733 28.9084 293.408 28.5834L291 26.1751L288.592 28.5834C288.267 28.9084 287.742 28.9084 287.417 28.5834C287.092 28.2584 287.092 27.7334 287.417 27.4084L289.825 25.0001L287.417 22.5917C287.092 22.2667 287.092 21.7417 287.417 21.4167C287.742 21.0917 288.267 21.0917 288.592 21.4167L291 23.8251L293.408 21.4167C293.733 21.0917 294.258 21.0917 294.583 21.4167C294.908 21.7417 294.908 22.2667 294.583 22.5917L292.175 25.0001L294.583 27.4084C294.9 27.7251 294.9 28.2584 294.583 28.5834Z" fill="#003686"/>
</g>
<g clip-path="url(#clip2_146_2135)">
<path d="M333.762 13.5706C334.091 13.071 334.762 12.9332 335.262 13.262C335.761 13.591 335.9 14.2623 335.571 14.762L320.946 36.97C320.617 37.4695 319.946 37.6083 319.446 37.2795C318.947 36.9506 318.808 36.2792 319.137 35.7795L321.438 32.2825C318.081 30.9992 315.401 28.3444 314.083 25.0002C315.957 20.2444 320.583 16.8752 326 16.8752C327.749 16.8752 329.415 17.2281 330.934 17.8645L333.762 13.5706ZM333.608 19.387C335.523 20.8068 337.029 22.7474 337.917 25.0002C336.043 29.7559 331.417 33.1252 326 33.1252C325.531 33.1252 325.067 33.0984 324.611 33.0491L326.354 30.4036C329.179 30.2212 331.417 27.8713 331.417 25.0002C331.417 24.365 331.306 23.7553 331.104 23.1887L333.608 19.387ZM326 19.5833C323.01 19.5833 320.583 22.0102 320.583 25.0002C320.583 26.9602 321.629 28.6737 323.189 29.6243L324.38 27.8157C323.406 27.2556 322.75 26.2074 322.75 25.0002C322.75 23.2019 324.202 21.7502 326 21.7502C326.732 21.7502 327.405 21.9914 327.947 22.3987L329.14 20.5891C328.254 19.9568 327.171 19.5833 326 19.5833Z" fill="#7A9BBF"/>
</g>
</g>
<defs>
<clipPath id="clip0_146_2135">
<rect width="350" height="50" fill="white"/>
</clipPath>
<clipPath id="clip1_146_2135">
<rect width="20" height="20" fill="white" transform="translate(281 15)"/>
</clipPath>
<clipPath id="clip2_146_2135">
<rect width="26" height="26" fill="white" transform="translate(313 12)"/>
</clipPath>
</defs>
</svg>
